<?xml version="1.0" encoding="utf-8"?>
<!-- Generator: Adobe Illustrator 22.1.0, SVG Export Plug-In . SVG Version: 6.00 Build 0)  -->
<svg version="1.1" id="Layer_1" xmlns="http://www.w3.org/2000/svg" xmlns:xlink="http://www.w3.org/1999/xlink" x="0px" y="0px"
	 viewBox="0 0 152 152" style="enable-background:new 0 0 152 152;" xml:space="preserve">
<style type="text/css">
	.st0{fill:#A1E0FF;}
</style>
<path class="st0" d="M76,1.6C35.1,1.6,1.6,35.1,1.6,76c0,40.9,33.5,74.4,74.4,74.4s74.4-33.5,74.4-74.4C150.4,35.1,116.9,1.6,76,1.6
	z M102,56.2c6,0,11.2-4.8,11.2,1.2S108,68.6,102,68.6s-11.2-5.2-11.2-11.2S96.1,56.2,102,56.2z M50,56.2c6,0,11.2-4.8,11.2,1.2
	S55.9,68.6,50,68.6s-11.2-5.2-11.2-11.2S44,56.2,50,56.2z M76,98.6c-15.9,0-36.9,11.6-36.9,11.6C47.7,99.4,61,92.3,76,92.3
	c15,0,28.3,7.1,36.9,17.9C112.9,110.2,91.9,98.6,76,98.6z"/>
</svg>
