<?xml version="1.0" encoding="utf-8"?>
<!-- Generator: Adobe Illustrator 22.1.0, SVG Export Plug-In . SVG Version: 6.00 Build 0)  -->
<svg version="1.1" id="Layer_1" xmlns="http://www.w3.org/2000/svg" xmlns:xlink="http://www.w3.org/1999/xlink" x="0px" y="0px"
	 viewBox="0 0 152 152" style="enable-background:new 0 0 152 152;" xml:space="preserve">
<style type="text/css">
	.st0{fill:#A1E0FF;}
</style>
<g>
	<path class="st0" d="M76,1.6C35.1,1.6,1.6,35.1,1.6,76c0,40.9,33.5,74.4,74.4,74.4s74.4-33.5,74.4-74.4
		C150.4,35.1,116.9,1.6,76,1.6z M50,46.2c6,0,11.2,5.2,11.2,11.2S55.9,68.6,50,68.6s-11.2-5.2-11.2-11.2S44,46.2,50,46.2z M76,97.6
		c-14.9,0-34.5,9-34.5,9C49.6,96.5,62,89.9,76,89.9c14,0,26.4,6.6,34.5,16.7C110.5,106.6,90.9,97.6,76,97.6z M102,68.6
		c-6,0-11.2-5.2-11.2-11.2s5.2-11.2,11.2-11.2s11.2,5.2,11.2,11.2S108,68.6,102,68.6z"/>
</g>
</svg>
