<?xml version="1.0" encoding="utf-8"?>
<!-- Generator: Adobe Illustrator 22.1.0, SVG Export Plug-In . SVG Version: 6.00 Build 0)  -->
<svg version="1.1" id="Layer_1" xmlns="http://www.w3.org/2000/svg" xmlns:xlink="http://www.w3.org/1999/xlink" x="0px" y="0px"
	 viewBox="0 0 152 152" style="enable-background:new 0 0 152 152;" xml:space="preserve">
<style type="text/css">
	.st0{fill:#A1E0FF;}
</style>
<g>
	<path class="st0" d="M76,1.6C35.1,1.6,1.6,35.1,1.6,76c0,40.9,33.5,74.4,74.4,74.4s74.4-33.5,74.4-74.4
		C150.4,35.1,116.9,1.6,76,1.6z M38.8,57.4c0-6,5.2-11.2,11.2-11.2s11.2,5.2,11.2,11.2S55.9,68.6,50,68.6S38.8,63.4,38.8,57.4z
		 M100.8,103.9H52.5c-2.5,0-4.5-2.1-4.5-4.7c0-2.6,2-4.7,4.5-4.7h48.2c2.5,0,4.5,2.1,4.5,4.7C105.3,101.8,103.3,103.9,100.8,103.9z
		 M102,68.6c-6,0-11.2-5.2-11.2-11.2s5.2-11.2,11.2-11.2s11.2,5.2,11.2,11.2S108,68.6,102,68.6z"/>
</g>
</svg>
