<?xml version="1.0" encoding="utf-8"?>
<!-- Generator: Adobe Illustrator 22.1.0, SVG Export Plug-In . SVG Version: 6.00 Build 0)  -->
<svg version="1.1" id="Layer_1" xmlns="http://www.w3.org/2000/svg" xmlns:xlink="http://www.w3.org/1999/xlink" x="0px" y="0px"
	 viewBox="0 0 59 40.3" style="enable-background:new 0 0 59 40.3;" xml:space="preserve">
<style type="text/css">
	.st0{fill:#FFFFFF;}
</style>
<path class="st0" d="M56,17.1H10.2l12-12c1.2-1.2,1.2-3.1,0-4.2s-3.1-1.2-4.2,0L0.9,18l0,0l0,0c-0.1,0.1-0.1,0.1-0.2,0.2
	s-0.1,0.2-0.2,0.3c-0.1,0.2-0.2,0.3-0.3,0.5l0,0c-0.1,0.2-0.1,0.4-0.2,0.5c0,0.1,0,0.1,0,0.2s0,0.2,0,0.4l0,0v0.1v0.1l0,0
	c0,0.1,0,0.2,0,0.4c0,0.1,0,0.1,0,0.2c0,0.2,0.1,0.3,0.2,0.5l0,0c0.1,0.2,0.2,0.3,0.3,0.5c0.1,0.1,0.1,0.2,0.2,0.3
	c0.1,0.1,0.1,0.1,0.1,0.2l0,0l0,0l0,0l17.2,17c0.6,0.6,1.4,0.9,2.1,0.9c0.8,0,1.5-0.3,2.1-0.9c0.6-0.6,0.9-1.4,0.9-2.1
	s-0.3-1.5-0.9-2.1l-12-12H56c1.7,0,3-1.3,3-3S57.7,17.1,56,17.1z"/>
</svg>
