<?xml version="1.0" encoding="utf-8"?>
<!-- Generator: Adobe Illustrator 22.1.0, SVG Export Plug-In . SVG Version: 6.00 Build 0)  -->
<svg version="1.1" id="Layer_1" xmlns="http://www.w3.org/2000/svg" xmlns:xlink="http://www.w3.org/1999/xlink" x="0px" y="0px"
	 viewBox="0 0 64 64" style="enable-background:new 0 0 64 64;" xml:space="preserve">
<style type="text/css">
	.st0{fill:#F5FCFF;stroke:#5CB6F6;stroke-width:2;stroke-miterlimit:10;}
	.st1{fill:none;stroke:#5CB6F6;stroke-width:2;stroke-miterlimit:10;}
	.st2{fill:none;stroke:#5CB6F6;stroke-miterlimit:10;}
	.st3{fill:#FFFFFF;stroke:#5CB6F6;stroke-miterlimit:10;}
	.st4{fill:#5CB6F6;}
</style>
<g>
	<path class="st0" d="M295.5,649.1h-29.3c-5.9,0-10.7-4.8-10.7-10.7V609c0-5.9,4.8-10.7,10.7-10.7h29.3c5.9,0,10.7,4.8,10.7,10.7
		v29.3C306.3,644.3,301.5,649.1,295.5,649.1z"/>
	<path class="st1" d="M280.8,638.8L280.8,638.8c-8.4,0-15.1-6.8-15.1-15.1v0c0-8.4,6.8-15.1,15.1-15.1h0c8.4,0,15.1,6.8,15.1,15.1v0
		C296,632,289.2,638.8,280.8,638.8z"/>
	<path class="st2" d="M265.7,610.8L265.7,610.8c-1.2,0-2.3-1-2.3-2.3l0,0c0-1.2,1-2.3,2.3-2.3l0,0c1.2,0,2.3,1,2.3,2.3l0,0
		C268,609.8,267,610.8,265.7,610.8z"/>
	<path class="st3" d="M280.8,635.4L280.8,635.4c-6.5,0-11.7-5.2-11.7-11.7v0c0-6.5,5.2-11.7,11.7-11.7h0c6.5,0,11.7,5.2,11.7,11.7v0
		C292.5,630.1,287.3,635.4,280.8,635.4z"/>
	<rect x="289.7" y="592.3" class="st0" width="6.2" height="5.8"/>
</g>
<g>
	<path class="st4" d="M46.7,61.4H17.3c-6.5,0-11.7-5.3-11.7-11.7V20.3c0-6.5,5.3-11.7,11.7-11.7h29.3c6.5,0,11.7,5.3,11.7,11.7v29.3
		C58.4,56.1,53.1,61.4,46.7,61.4z M17.3,10.6c-5.4,0-9.7,4.4-9.7,9.7v29.3c0,5.4,4.4,9.7,9.7,9.7h29.3c5.4,0,9.7-4.4,9.7-9.7V20.3
		c0-5.4-4.4-9.7-9.7-9.7H17.3z"/>
	<path class="st4" d="M32,51.1c-8.9,0-16.1-7.2-16.1-16.1c0-8.9,7.2-16.1,16.1-16.1c8.9,0,16.1,7.2,16.1,16.1
		C48.1,43.9,40.9,51.1,32,51.1z M32,20.9c-7.8,0-14.1,6.3-14.1,14.1c0,7.8,6.3,14.1,14.1,14.1c7.8,0,14.1-6.3,14.1-14.1
		C46.1,27.2,39.8,20.9,32,20.9z"/>
	<path class="st4" d="M16.9,22.6c-1.5,0-2.8-1.2-2.8-2.8s1.2-2.8,2.8-2.8c1.5,0,2.8,1.2,2.8,2.8S18.4,22.6,16.9,22.6z M16.9,18.1
		c-1,0-1.8,0.8-1.8,1.8s0.8,1.8,1.8,1.8c1,0,1.8-0.8,1.8-1.8S17.8,18.1,16.9,18.1z"/>
	<path class="st4" d="M32,47.2c-6.7,0-12.2-5.5-12.2-12.2c0-6.7,5.5-12.2,12.2-12.2c6.7,0,12.2,5.5,12.2,12.2
		C44.2,41.7,38.7,47.2,32,47.2z M32,23.8c-6.2,0-11.2,5-11.2,11.2s5,11.2,11.2,11.2s11.2-5,11.2-11.2S38.2,23.8,32,23.8z"/>
	<path class="st4" d="M48,10.4h-8.2V2.6H48V10.4z M41.8,8.4H46V4.6h-4.2V8.4z"/>
</g>
</svg>
