<?xml version="1.0" encoding="utf-8"?>
<!-- Generator: Adobe Illustrator 22.1.0, SVG Export Plug-In . SVG Version: 6.00 Build 0)  -->
<svg version="1.1" id="Layer_1" xmlns="http://www.w3.org/2000/svg" xmlns:xlink="http://www.w3.org/1999/xlink" x="0px" y="0px"
	 viewBox="0 0 60 64" style="enable-background:new 0 0 60 64;" xml:space="preserve">
<style type="text/css">
	.st0{fill:#FFFFFF;}
	.st1{fill:#5CB6F6;}
	.st2{fill:#A1E0FF;}
</style>
<g>
	<g>
		<g>
			<path class="st0" d="M44.7,62.3H15.3C8,62.3,2.2,56.5,2.2,49.2V19.8C2.2,12.5,8,6.7,15.3,6.7h29.4c7.3,0,13.2,5.9,13.2,13.2v29.4
				C57.8,56.5,52,62.3,44.7,62.3z"/>
		</g>
		<path class="st1" d="M46.2,63.3H13.8c-7,0-12.7-5.7-12.7-12.7V18.3c0-7,5.7-12.7,12.7-12.7h32.4c7,0,12.7,5.7,12.7,12.7v32.4
			C58.8,57.7,53.2,63.3,46.2,63.3z M13.8,7.7c-5.9,0-10.7,4.8-10.7,10.7v32.4c0,5.9,4.8,10.7,10.7,10.7h32.4
			c5.9,0,10.7-4.8,10.7-10.7V18.3c0-5.9-4.8-10.7-10.7-10.7H13.8z"/>
		<g>
			<path class="st0" d="M44.7,57.3H15.3C8,57.3,2.2,51.5,2.2,44.2V14.8C2.2,7.5,8,1.7,15.3,1.7h29.4c7.3,0,13.2,5.9,13.2,13.2v29.4
				C57.8,51.5,52,57.3,44.7,57.3z"/>
		</g>
		<path class="st1" d="M46.2,58.3H13.8c-7,0-12.7-5.7-12.7-12.7V13.3c0-7,5.7-12.7,12.7-12.7h32.4c7,0,12.7,5.7,12.7,12.7v32.4
			C58.8,52.7,53.2,58.3,46.2,58.3z M13.8,2.7C7.9,2.7,3.2,7.4,3.2,13.3v32.4c0,5.9,4.8,10.7,10.7,10.7h32.4
			c5.9,0,10.7-4.8,10.7-10.7V13.3c0-5.9-4.8-10.7-10.7-10.7H13.8z"/>
	</g>
	<g>
		<g>
			<line class="st2" x1="19.4" y1="18.9" x2="40.6" y2="40.1"/>
			<rect x="29" y="14.5" transform="matrix(0.7071 -0.7071 0.7071 0.7071 -12.0729 29.8536)" class="st1" width="2" height="30"/>
		</g>
		<g>
			<line class="st2" x1="40.6" y1="18.9" x2="19.4" y2="40.1"/>
			<rect x="15" y="28.5" transform="matrix(0.7071 -0.7071 0.7071 0.7071 -12.0729 29.8536)" class="st1" width="30" height="2"/>
		</g>
	</g>
</g>
</svg>
