<?xml version="1.0" encoding="utf-8"?>
<!-- Generator: Adobe Illustrator 22.1.0, SVG Export Plug-In . SVG Version: 6.00 Build 0)  -->
<svg version="1.1" id="Layer_1" xmlns="http://www.w3.org/2000/svg" xmlns:xlink="http://www.w3.org/1999/xlink" x="0px" y="0px"
	 viewBox="0 0 60 64" style="enable-background:new 0 0 60 64;" xml:space="preserve">
<style type="text/css">
	.st0{fill:#FFFFFF;}
	.st1{fill:#5CB6F6;}
	.st2{fill:#F0FCFF;}
</style>
<g>
	<g>
		<g>
			<path class="st0" d="M44.7,62.3H15.3C8,62.3,2.2,56.5,2.2,49.2V19.8C2.2,12.5,8,6.7,15.3,6.7h29.4c7.3,0,13.2,5.9,13.2,13.2v29.4
				C57.8,56.5,52,62.3,44.7,62.3z"/>
		</g>
		<path class="st1" d="M46.2,63.3H13.8c-7,0-12.7-5.7-12.7-12.7V18.3c0-7,5.7-12.7,12.7-12.7h32.4c7,0,12.7,5.7,12.7,12.7v32.4
			C58.8,57.7,53.2,63.3,46.2,63.3z M13.8,7.7c-5.9,0-10.7,4.8-10.7,10.7v32.4c0,5.9,4.8,10.7,10.7,10.7h32.4
			c5.9,0,10.7-4.8,10.7-10.7V18.3c0-5.9-4.8-10.7-10.7-10.7H13.8z"/>
		<g>
			<path class="st0" d="M44.7,57.3H15.3C8,57.3,2.2,51.5,2.2,44.2V14.8C2.2,7.5,8,1.7,15.3,1.7h29.4c7.3,0,13.2,5.9,13.2,13.2v29.4
				C57.8,51.5,52,57.3,44.7,57.3z"/>
		</g>
		<path class="st1" d="M46.2,58.3H13.8c-7,0-12.7-5.7-12.7-12.7V13.3c0-7,5.7-12.7,12.7-12.7h32.4c7,0,12.7,5.7,12.7,12.7v32.4
			C58.8,52.7,53.2,58.3,46.2,58.3z M13.8,2.7C7.9,2.7,3.2,7.4,3.2,13.3v32.4c0,5.9,4.8,10.7,10.7,10.7h32.4
			c5.9,0,10.7-4.8,10.7-10.7V13.3c0-5.9-4.8-10.7-10.7-10.7H13.8z"/>
	</g>
	<g>
		<path class="st2" d="M12.2,20.7l-0.3,21.7c0,2.2,1.7,4,3.9,4h27.7c2.2,0,3.9-1.8,3.9-3.9V20.7H12.2z"/>
		<path class="st1" d="M43.4,47.3H16.2c-2.8,0-5-2.2-5-5V16.7c0-2.8,2.2-5,5-5h27.2c2.8,0,5,2.2,5,5v25.7
			C48.4,45.1,46.2,47.3,43.4,47.3z M16.2,13.7c-1.7,0-3,1.3-3,3v25.7c0,1.7,1.3,3,3,3h27.2c1.7,0,3-1.3,3-3V16.7c0-1.7-1.3-3-3-3
			H16.2z"/>
		<rect x="12.2" y="19.9" class="st1" width="35.2" height="2"/>
		<g>
			<path class="st1" d="M20.9,31.8h-0.7c-1.5,0-2.7-1.2-2.7-2.7v-0.7c0-1.5,1.2-2.7,2.7-2.7h0.7c1.5,0,2.7,1.2,2.7,2.7v0.7
				C23.6,30.6,22.4,31.8,20.9,31.8z"/>
			<path class="st1" d="M30.3,31.8h-0.7c-1.5,0-2.7-1.2-2.7-2.7v-0.7c0-1.5,1.2-2.7,2.7-2.7h0.7c1.5,0,2.7,1.2,2.7,2.7v0.7
				C33.1,30.6,31.8,31.8,30.3,31.8z"/>
			<path class="st1" d="M40.1,31.8h-0.7c-1.5,0-2.7-1.2-2.7-2.7v-0.7c0-1.5,1.2-2.7,2.7-2.7h0.7c1.5,0,2.7,1.2,2.7,2.7v0.7
				C42.8,30.6,41.6,31.8,40.1,31.8z"/>
			<path class="st1" d="M20.9,41.1h-0.7c-1.5,0-2.7-1.2-2.7-2.7v-0.7c0-1.5,1.2-2.7,2.7-2.7h0.7c1.5,0,2.7,1.2,2.7,2.7v0.7
				C23.6,39.9,22.4,41.1,20.9,41.1z"/>
			<path class="st1" d="M30.3,41.1h-0.7c-1.5,0-2.7-1.2-2.7-2.7v-0.7c0-1.5,1.2-2.7,2.7-2.7h0.7c1.5,0,2.7,1.2,2.7,2.7v0.7
				C33.1,39.9,31.8,41.1,30.3,41.1z"/>
			<path class="st1" d="M40.1,41.1h-0.7c-1.5,0-2.7-1.2-2.7-2.7v-0.7c0-1.5,1.2-2.7,2.7-2.7h0.7c1.5,0,2.7,1.2,2.7,2.7v0.7
				C42.8,39.9,41.6,41.1,40.1,41.1z"/>
		</g>
	</g>
</g>
</svg>
