<?xml version="1.0" encoding="utf-8"?>
<!-- Generator: Adobe Illustrator 22.1.0, SVG Export Plug-In . SVG Version: 6.00 Build 0)  -->
<svg version="1.1" id="Layer_1" xmlns="http://www.w3.org/2000/svg" xmlns:xlink="http://www.w3.org/1999/xlink" x="0px" y="0px"
	 viewBox="0 0 60 64" style="enable-background:new 0 0 60 64;" xml:space="preserve">
<style type="text/css">
	.st0{fill:#FFFFFF;}
	.st1{fill:#5CB6F6;}
	.st2{fill:#F0FCFF;}
</style>
<g>
	<g>
		<g>
			<path class="st0" d="M44.7,62.3H15.3C8,62.3,2.2,56.5,2.2,49.2V19.8C2.2,12.5,8,6.7,15.3,6.7h29.4c7.3,0,13.2,5.9,13.2,13.2v29.4
				C57.8,56.5,52,62.3,44.7,62.3z"/>
		</g>
		<path class="st1" d="M46.2,63.3H13.8c-7,0-12.7-5.7-12.7-12.7V18.3c0-7,5.7-12.7,12.7-12.7h32.4c7,0,12.7,5.7,12.7,12.7v32.4
			C58.8,57.7,53.2,63.3,46.2,63.3z M13.8,7.7c-5.9,0-10.7,4.8-10.7,10.7v32.4c0,5.9,4.8,10.7,10.7,10.7h32.4
			c5.9,0,10.7-4.8,10.7-10.7V18.3c0-5.9-4.8-10.7-10.7-10.7H13.8z"/>
		<g>
			<path class="st0" d="M44.7,57.3H15.3C8,57.3,2.2,51.5,2.2,44.2V14.8C2.2,7.5,8,1.7,15.3,1.7h29.4c7.3,0,13.2,5.9,13.2,13.2v29.4
				C57.8,51.5,52,57.3,44.7,57.3z"/>
		</g>
		<path class="st1" d="M46.2,58.3H13.8c-7,0-12.7-5.7-12.7-12.7V13.3c0-7,5.7-12.7,12.7-12.7h32.4c7,0,12.7,5.7,12.7,12.7v32.4
			C58.8,52.7,53.2,58.3,46.2,58.3z M13.8,2.7C7.9,2.7,3.2,7.4,3.2,13.3v32.4c0,5.9,4.8,10.7,10.7,10.7h32.4
			c5.9,0,10.7-4.8,10.7-10.7V13.3c0-5.9-4.8-10.7-10.7-10.7H13.8z"/>
	</g>
	<g>
		
			<rect x="27.5" y="6.5" transform="matrix(9.552042e-07 -1 1 9.552042e-07 9.4792 50.8005)" class="st2" width="5.2" height="28.3"/>
		<rect x="18.8" y="23.3" class="st2" width="22.9" height="23.9"/>
		<g>
			<rect x="25.5" y="25.9" class="st1" width="2" height="18.6"/>
		</g>
		<g>
			<polygon class="st1" points="42.7,48.2 17.8,48.2 17.8,24.3 19.8,24.3 19.8,46.2 42.7,46.2 			"/>
		</g>
		<g>
			<rect x="33.1" y="25.9" class="st1" width="2" height="18.6"/>
		</g>
		<g>
			<rect x="40.7" y="24.3" class="st1" width="2" height="22.9"/>
		</g>
		<g>
			<g>
				<rect x="16" y="22.3" class="st1" width="28.3" height="2"/>
			</g>
			<g>
				<polygon class="st1" points="45.3,24.3 43.3,24.3 43.3,19 17,19 17,24.3 15,24.3 15,17 45.3,17 				"/>
			</g>
		</g>
		<g>
			<path class="st1" d="M36.5,18.2l-1.9-0.5l1,0.2l-1-0.2c0,0,0.6-2.4-0.7-3.9c-0.7-0.9-2.1-1.4-3.9-1.4c-1.9,0-3.2,0.5-3.9,1.4
				c-1.2,1.5-0.7,3.9-0.6,3.9l-1.9,0.5c0-0.1-0.8-3.3,1-5.6c1.1-1.5,3-2.2,5.5-2.2c2.5,0,4.4,0.7,5.5,2.2
				C37.3,14.9,36.5,18.1,36.5,18.2z"/>
		</g>
	</g>
</g>
</svg>
