<?xml version="1.0" encoding="utf-8"?>
<!-- Generator: Adobe Illustrator 22.1.0, SVG Export Plug-In . SVG Version: 6.00 Build 0)  -->
<svg version="1.1" id="Layer_1" xmlns="http://www.w3.org/2000/svg" xmlns:xlink="http://www.w3.org/1999/xlink" x="0px" y="0px"
	 viewBox="0 0 64 64" style="enable-background:new 0 0 64 64;" xml:space="preserve">
<style type="text/css">
	.st0{fill:#5CB6F6;}
</style>
<path class="st0" d="M43.8,59.7H14.5C8,59.7,2.8,54.4,2.8,48V18.6C2.8,12.1,8,6.9,14.5,6.9h29.3c6.5,0,11.7,5.3,11.7,11.7V48
	C55.6,54.4,50.3,59.7,43.8,59.7z M14.5,8.9c-5.4,0-9.7,4.4-9.7,9.7V48c0,5.4,4.4,9.7,9.7,9.7h29.3c5.4,0,9.7-4.4,9.7-9.7V18.6
	c0-5.4-4.4-9.7-9.7-9.7H14.5z"/>
<rect x="31.8" y="15.9" transform="matrix(0.7071 -0.7071 0.7071 0.7071 2.2835 39.34)" class="st0" width="33.7" height="2"/>
<rect x="13.9" y="19.4" class="st0" width="18.9" height="1"/>
<rect x="13.9" y="28.5" class="st0" width="18.9" height="1"/>
<rect x="13.9" y="37.7" class="st0" width="28.9" height="1"/>
<rect x="13.9" y="46.8" class="st0" width="28.9" height="1"/>
</svg>
