<?xml version="1.0" encoding="utf-8"?>
<!-- Generator: Adobe Illustrator 22.1.0, SVG Export Plug-In . SVG Version: 6.00 Build 0)  -->
<svg version="1.1" id="Layer_1" xmlns="http://www.w3.org/2000/svg" xmlns:xlink="http://www.w3.org/1999/xlink" x="0px" y="0px"
	 viewBox="0 0 60 64" style="enable-background:new 0 0 60 64;" xml:space="preserve">
<style type="text/css">
	.st0{fill:#FFFFFF;}
	.st1{fill:#5CB6F6;}
	.st2{clip-path:url(#XMLID_3_);}
	.st3{fill:#F0FCFF;}
</style>
<g>
	<g>
		<path class="st0" d="M44.7,62.3H15.3C8,62.3,2.2,56.5,2.2,49.2V19.8C2.2,12.5,8,6.7,15.3,6.7h29.4c7.3,0,13.2,5.9,13.2,13.2v29.4
			C57.8,56.5,52,62.3,44.7,62.3z"/>
	</g>
	<path class="st1" d="M46.2,63.3H13.8c-7,0-12.7-5.7-12.7-12.7V18.3c0-7,5.7-12.7,12.7-12.7h32.4c7,0,12.7,5.7,12.7,12.7v32.4
		C58.8,57.7,53.2,63.3,46.2,63.3z M13.8,7.7c-5.9,0-10.7,4.8-10.7,10.7v32.4c0,5.9,4.8,10.7,10.7,10.7h32.4
		c5.9,0,10.7-4.8,10.7-10.7V18.3c0-5.9-4.8-10.7-10.7-10.7H13.8z"/>
	<g>
		<g>
			<defs>
				<path id="XMLID_2_" d="M44.7,57.3H15.3C8,57.3,2.2,51.5,2.2,44.2V14.8C2.2,7.5,8,1.7,15.3,1.7h29.4c7.3,0,13.2,5.9,13.2,13.2
					v29.4C57.8,51.5,52,57.3,44.7,57.3z"/>
			</defs>
			<use xlink:href="#XMLID_2_"  style="overflow:visible;fill:#FFFFFF;"/>
			<clipPath id="XMLID_3_">
				<use xlink:href="#XMLID_2_"  style="overflow:visible;"/>
			</clipPath>
			<g class="st2">
				<g>
					<path class="st0" d="M28,47.5L13.3,32.7c-1.2-1.2-1.2-3.1,0-4.2l39-39c1.2-1.2,3.1-1.2,4.2,0L71.2,4.2c1.2,1.2,1.2,3.1,0,4.2
						l-39,39C31.1,48.6,29.2,48.6,28,47.5z"/>
					<path class="st1" d="M30.1,49.3c-1,0-2-0.4-2.8-1.2L12.6,33.4c-0.8-0.8-1.2-1.8-1.2-2.8c0-1.1,0.4-2.1,1.2-2.8l39-39
						c1.6-1.6,4.1-1.6,5.6,0L72,3.5c0.8,0.8,1.2,1.8,1.2,2.8c0,1.1-0.4,2.1-1.2,2.8l-39,39C32.2,48.9,31.2,49.3,30.1,49.3z
						 M28.7,46.8c0.8,0.8,2,0.8,2.8,0l39-39c0.4-0.4,0.6-0.9,0.6-1.4c0-0.5-0.2-1-0.6-1.4L55.8-9.8c-0.8-0.8-2-0.8-2.8,0l-39,39
						c-0.4,0.4-0.6,0.9-0.6,1.4c0,0.5,0.2,1,0.6,1.4L28.7,46.8z"/>
				</g>
				
					<rect x="30.2" y="46.2" transform="matrix(0.9977 -6.736133e-02 6.736133e-02 0.9977 -3.0766 3.2544)" class="st1" width="33.1" height="2"/>
				<g>
					<polygon class="st3" points="24.4,17.4 43.9,35.8 71.2,8.5 50.3,-8.5 					"/>
					<path class="st1" d="M43.9,37.2L23,17.4L50.2-9.9L72.7,8.4L43.9,37.2z M25.8,17.3l18.1,17.1L69.8,8.5L50.4-7.2L25.8,17.3z"/>
				</g>
			</g>
		</g>
	</g>
	<path class="st1" d="M46.2,58.3H13.8c-7,0-12.7-5.7-12.7-12.7V13.3c0-7,5.7-12.7,12.7-12.7h32.4c7,0,12.7,5.7,12.7,12.7v32.4
		C58.8,52.7,53.2,58.3,46.2,58.3z M13.8,2.7C7.9,2.7,3.2,7.4,3.2,13.3v32.4c0,5.9,4.8,10.7,10.7,10.7h32.4c5.9,0,10.7-4.8,10.7-10.7
		V13.3c0-5.9-4.8-10.7-10.7-10.7H13.8z"/>
</g>
</svg>
