<?xml version="1.0" encoding="utf-8"?>
<!-- Generator: Adobe Illustrator 22.1.0, SVG Export Plug-In . SVG Version: 6.00 Build 0)  -->
<svg version="1.1" id="Layer_1" xmlns="http://www.w3.org/2000/svg" xmlns:xlink="http://www.w3.org/1999/xlink" x="0px" y="0px"
	 viewBox="0 0 57 57" style="enable-background:new 0 0 57 57;" xml:space="preserve">
<style type="text/css">
	.st0{fill:#FFFFFF;}
	.st1{fill:#EA3F3F;}
</style>
<circle class="st0" cx="28.5" cy="28.5" r="25"/>
<g>
	<path class="st1" d="M28.5,56.5c-15.4,0-28-12.6-28-28s12.6-28,28-28s28,12.6,28,28S43.9,56.5,28.5,56.5z M28.5,3.5
		c-13.8,0-25,11.2-25,25s11.2,25,25,25s25-11.2,25-25S42.3,3.5,28.5,3.5z"/>
</g>
<path class="st1" d="M38.7,30.9c0-0.6-0.1-1-0.6-1.4c-0.8-0.8-2-0.8-2.8,0l-4.6,4.6V18c0-1.1-0.9-2.1-2-2s-2.1,0.9-2,2v16.3
	l-4.6-4.6c-0.8-0.8-2-0.8-2.8,0s-0.8,2,0,2.8l8,8l0,0c0.1,0.1,0.2,0.2,0.3,0.3l0,0l0,0l0,0l0,0c0,0,0,0,0.1,0
	c0.1,0.1,0.3,0.1,0.4,0.2h0.1c0.1,0,0.3,0.1,0.5,0.1c0.1,0,0.1,0,0.4,0l0,0c0.1,0,0.3-0.1,0.4-0.1c0,0,0.1,0,0.1-0.1
	c0.1-0.1,0.2-0.1,0.4-0.2c0,0,0,0,0.1,0l0,0c0.1,0,0.1-0.1,0.1-0.1l0,0l0,0l8-8C38.5,31.9,38.7,31.4,38.7,30.9z"/>
</svg>
