<?xml version="1.0" encoding="utf-8"?>
<!-- Generator: Adobe Illustrator 22.1.0, SVG Export Plug-In . SVG Version: 6.00 Build 0)  -->
<svg version="1.1" id="Layer_1" xmlns="http://www.w3.org/2000/svg" xmlns:xlink="http://www.w3.org/1999/xlink" x="0px" y="0px"
	 viewBox="0 0 144 144" style="enable-background:new 0 0 144 144;" xml:space="preserve">
<style type="text/css">
	.st0{clip-path:url(#XMLID_4_);fill:#96D7EA;}
	.st1{clip-path:url(#XMLID_4_);fill:none;stroke:#FFFFFF;stroke-miterlimit:10;}
	.st2{clip-path:url(#XMLID_4_);}
	.st3{fill:#A1E0FF;}
	.st4{fill:#FFFFFF;}
</style>
<symbol  id="book-icon_2" viewBox="-77.3 -61.3 143.3 143.7">
	<g>
		<defs>
			<path id="XMLID_3_" d="M43.4-61h-98c-12.5,0-22.7,10.1-22.7,22.7v98c0,12.5,10.1,22.7,22.7,22.7h98C55.9,82.4,66,72.2,66,59.7
				v-98C66-50.8,55.9-61,43.4-61z"/>
		</defs>
		<use xlink:href="#XMLID_3_"  style="overflow:visible;fill:#A1E0FF;"/>
		<clipPath id="XMLID_4_">
			<use xlink:href="#XMLID_3_"  style="overflow:visible;"/>
		</clipPath>
		<polyline class="st0" points="-41.4,-23.8 -12,-61.3 66,-61.3 66,-13.3 -14.6,7.6 -41.4,-23.8 		"/>
		<path class="st1" d="M-47.6,52.3"/>
		<path class="st1" d="M16.4,31"/>
		<g class="st2">
			<polygon class="st3" points="-29,52 -31.3,58.1 -16.4,62.8 29.8,44.6 31.6,38.1 30.8,-25.3 20.5,-32.1 			"/>
			<path class="st4" d="M21.8-33.4l1.5,1.1l7.4,5.7c1.1,0.8,1.8,2.2,1.8,4L32.4,39c0.1,4.1-3,7.9-5,8.8c0,0-2.8,2-20.2,7.9
				l-22.7,7.3c-7.6,2.2-16.8-0.8-16.8-8.9c-0.1-20.5,0-44.5-0.1-65c0-3.8,1.4-5.7,5.1-6.9c13.2-4.4,28.8-10.6,42.8-15.4
				C17.6-34.1,19.8-34.3,21.8-33.4 M22.2-23.2c0,0,0.1,25.3,0,38.9c0,4.5,0.2,9.4-0.4,14c-0.4,2.9-2.8,6-4.2,7.9
				c-1.8,2.7-4.9,4.4-8.5,5.8c-3,1.2-6.3,2.3-9.5,3.4c-7.7,2.7-17.6,5.7-25.6,8.5c-1.4,0.5-1.9,2.4-0.8,3.4c3,2.9,6.8,2.8,10.3,2
				c0,0,0,0,0,0c0.4-0.1,9.4-2.8,22.4-7.1c11.6-3.9,18.2-6.9,18.2-6.9c4.9-2.1,6-6.3,6-11.8c0-20-0.1-34.7-0.1-54.3
				c0-2-0.7-3.8-2.4-5c-0.6-0.5-1.6-1.3-2.3-1.8l-0.4-0.3c-1.1-0.8-2.6-0.1-2.7,1.3c0,0.7,0,1.1,0,1.1V-23.2z"/>
		</g>
		<g class="st2">
			<polygon class="st3" points="-39.3,44 -41.7,50.1 -26.8,54.7 19.4,36.6 21.2,30.1 20.4,-33.4 10.2,-40.1 			"/>
			<path class="st4" d="M22.2-33.1L22,31c0.1,4.1-3,7.9-5,8.8c0,0-2.8,2-20.2,7.9l-22.7,7.3c-7.6,2.2-16.8-0.8-16.8-8.9
				c-0.1-20.5,0-44.5-0.1-65c0-3.8,1.4-5.7,5.1-6.9c13.2-4.4,28.8-10.6,42.8-15.4c2.7-0.9,5.6-0.5,7.9,1.2L22.2-33.1z M13.9,38.7
				c4.9-2.1,6-6.3,6-11.8c0-20-0.1-34.7-0.1-54.3c0-2-0.7-3.8-2.4-5c-0.6-0.5-1.7-1.4-2.4-1.8c-2.5-1.5-4.7-0.6-4.7,2.5
				c0.1,13.6,0,25.8,0,39.4c0,4.5,0.2,9.4-0.4,14c-0.2,1.4,0,5.9-2.1,8.7c-2.3,3-7,4.3-8.8,5c-3,1.2-6.3,2.3-9.5,3.4
				c-7.7,2.7-17.6,5.7-25.6,8.5c-1.5,0.5-1.9,2.4-0.8,3.4c3,2.9,6.8,2.8,10.3,2c0,0,0,0,0,0c0.4-0.1,9.5-2.8,22.4-7.1
				C7.2,41.8,13.9,38.7,13.9,38.7z"/>
		</g>
	</g>
</symbol>
<use xlink:href="#book-icon_2"  width="143.3" height="143.7" id="XMLID_62_" x="-77.3" y="-61.3" transform="matrix(1.0046 0 0 -1.0023 77.6861 82.5673)" style="overflow:visible;"/>
</svg>
