<?xml version="1.0" encoding="utf-8"?>
<!-- Generator: Adobe Illustrator 22.1.0, SVG Export Plug-In . SVG Version: 6.00 Build 0)  -->
<svg version="1.1" id="Layer_1" xmlns="http://www.w3.org/2000/svg" xmlns:xlink="http://www.w3.org/1999/xlink" x="0px" y="0px"
	 viewBox="0 0 245 245" style="enable-background:new 0 0 245 245;" xml:space="preserve">
<style type="text/css">
	.st0{fill:#41AAF5;}
	.st1{fill:#5EEA89;}
</style>
<path class="st0" d="M117.4,243.3L117.4,243.3h-1.1c-1.1-0.1-2-1-1.9-2.1s1-2,2.1-1.9h1c1.1,0,2,1,1.9,2.1
	C119.4,242.5,118.5,243.3,117.4,243.3z M132.4,243c-1,0-1.9-0.8-2-1.8c-0.1-1.1,0.7-2.1,1.8-2.2l1-0.1c1.1-0.1,2.1,0.7,2.2,1.8
	s-0.7,2.1-1.8,2.2l-1,0.1C132.5,243,132.4,243,132.4,243z M101.5,241.6c-0.1,0-0.2,0-0.4,0l-1-0.2c-1.1-0.2-1.8-1.2-1.6-2.3
	c0.2-1.1,1.3-1.8,2.3-1.6l1,0.2c1.1,0.2,1.8,1.2,1.6,2.3C103.3,240.9,102.5,241.6,101.5,241.6z M148.2,240.7c-0.9,0-1.7-0.6-2-1.6
	c-0.2-1.1,0.4-2.1,1.5-2.4l1-0.2c1.1-0.3,2.1,0.4,2.4,1.5c0.2,1.1-0.4,2.1-1.5,2.4c-0.3,0.1-0.7,0.2-1,0.2
	C148.5,240.6,148.3,240.7,148.2,240.7z M86,237.7c-0.2,0-0.4,0-0.6-0.1l-1-0.3c-1-0.3-1.6-1.5-1.3-2.5s1.5-1.6,2.5-1.3l0.9,0.3
	c1.1,0.3,1.6,1.5,1.3,2.5C87.6,237.2,86.9,237.7,86,237.7z M163.5,236.2c-0.8,0-1.6-0.5-1.9-1.3c-0.4-1,0.2-2.2,1.2-2.6l0.9-0.3
	c1-0.4,2.2,0.1,2.6,1.2c0.4,1-0.1,2.2-1.2,2.6l-1,0.4C164,236.1,163.8,236.2,163.5,236.2z M71.1,231.8c-0.3,0-0.6-0.1-0.9-0.2
	l-0.9-0.4c-1-0.5-1.4-1.7-0.9-2.7s1.7-1.4,2.7-0.9L72,228c1,0.5,1.4,1.7,0.9,2.7C72.6,231.4,71.9,231.8,71.1,231.8z M178.1,229.7
	c-0.7,0-1.4-0.4-1.8-1.1c-0.5-1-0.1-2.2,0.8-2.7c0.3-0.2,0.6-0.3,0.9-0.5c1-0.5,2.2-0.2,2.7,0.8s0.2,2.2-0.8,2.7
	c-0.3,0.2-0.6,0.3-0.9,0.5C178.8,229.6,178.4,229.7,178.1,229.7z M57.2,223.9c-0.4,0-0.8-0.1-1.1-0.3l-0.8-0.6
	c-0.9-0.6-1.2-1.9-0.5-2.8c0.6-0.9,1.9-1.2,2.8-0.5l0.8,0.5c0.9,0.6,1.2,1.8,0.6,2.8C58.5,223.6,57.9,223.9,57.2,223.9z
	 M191.7,221.2c-0.6,0-1.2-0.3-1.6-0.8c-0.6-0.9-0.4-2.1,0.5-2.8c0.3-0.2,0.5-0.4,0.8-0.6c0.9-0.7,2.1-0.5,2.8,0.4s0.5,2.1-0.4,2.8
	c-0.3,0.2-0.6,0.4-0.8,0.6C192.5,221.1,192.1,221.2,191.7,221.2z M44.5,214.3c-0.5,0-0.9-0.2-1.3-0.5l-0.8-0.7
	c-0.8-0.7-0.9-2-0.2-2.8s2-0.9,2.8-0.2l0.7,0.6c0.8,0.7,0.9,2,0.2,2.8C45.6,214.1,45,214.3,44.5,214.3z M204,211.1
	c-0.5,0-1.1-0.2-1.5-0.6c-0.8-0.8-0.7-2.1,0.1-2.8c0.2-0.2,0.5-0.4,0.7-0.7c0.8-0.8,2.1-0.7,2.8,0.1s0.7,2.1-0.1,2.8
	c-0.2,0.2-0.5,0.5-0.7,0.7C205,210.9,204.5,211.1,204,211.1z M33.2,203c-0.6,0-1.1-0.2-1.5-0.7l-0.7-0.8c-0.7-0.8-0.6-2.1,0.2-2.8
	c0.8-0.7,2.1-0.6,2.8,0.2l0.6,0.7c0.7,0.8,0.6,2.1-0.2,2.8C34.1,202.9,33.6,203,33.2,203z M214.9,199.4c-0.4,0-0.9-0.1-1.3-0.4
	c-0.9-0.7-1-2-0.3-2.8l0.6-0.8c0.7-0.9,1.9-1,2.8-0.3c0.9,0.7,1,1.9,0.3,2.8l-0.6,0.8C216.1,199.1,215.5,199.4,214.9,199.4z
	 M23.4,190.3c-0.6,0-1.3-0.3-1.7-0.9l-0.6-0.8c-0.6-0.9-0.3-2.2,0.6-2.8s2.2-0.3,2.8,0.6l0.5,0.8c0.6,0.9,0.4,2.2-0.6,2.8
	C24.2,190.2,23.8,190.3,23.4,190.3z M224.1,186.3c-0.4,0-0.7-0.1-1-0.3c-0.9-0.6-1.2-1.8-0.7-2.7l0.5-0.8c0.6-0.9,1.8-1.3,2.7-0.7
	s1.3,1.8,0.7,2.7l-0.5,0.9C225.5,186,224.8,186.3,224.1,186.3z M15.5,176.5c-0.7,0-1.5-0.4-1.8-1.1l-0.4-0.9c-0.5-1-0.1-2.2,0.9-2.7
	s2.2-0.1,2.7,0.9l0.4,0.9c0.5,1,0.1,2.2-0.9,2.7C16.1,176.4,15.8,176.5,15.5,176.5z M231.5,172.1c-0.3,0-0.5-0.1-0.8-0.2
	c-1-0.4-1.5-1.6-1-2.6l0.4-0.9c0.4-1,1.6-1.5,2.6-1c1,0.4,1.5,1.6,1,2.6l-0.4,0.9C233,171.7,232.3,172.1,231.5,172.1z M9.5,161.7
	c-0.8,0-1.6-0.5-1.9-1.4l-0.3-1c-0.3-1.1,0.2-2.2,1.3-2.5s2.2,0.2,2.5,1.3l0.3,0.9c0.3,1-0.2,2.2-1.3,2.5
	C9.9,161.6,9.7,161.7,9.5,161.7z M236.9,157.1c-0.2,0-0.4,0-0.5-0.1c-1.1-0.3-1.7-1.4-1.4-2.5l0.3-1c0.3-1.1,1.4-1.7,2.5-1.4
	s1.7,1.4,1.4,2.5l-0.3,1C238.6,156.5,237.8,157.1,236.9,157.1z M5.5,146.2c-0.9,0-1.8-0.7-2-1.6l-0.2-1c-0.2-1.1,0.5-2.1,1.6-2.3
	s2.1,0.5,2.3,1.6l0.2,1c0.2,1.1-0.5,2.1-1.6,2.3C5.8,146.2,5.6,146.2,5.5,146.2z M240.2,141.4c-0.1,0-0.2,0-0.3,0
	c-1.1-0.2-1.9-1.2-1.7-2.3l0.1-1c0.1-1.1,1.1-1.9,2.2-1.7c1.1,0.1,1.9,1.2,1.7,2.2l-0.1,1C242.1,140.7,241.2,141.4,240.2,141.4z
	 M3.7,130.3c-1.1,0-1.9-0.8-2-1.9v-1c0-1.1,0.8-2,1.9-2.1c1.1,0,2,0.8,2.1,1.9v1C5.7,129.3,4.9,130.2,3.7,130.3
	C3.8,130.3,3.7,130.3,3.7,130.3z M241.4,125.5L241.4,125.5c-1.1,0-2-0.9-2-2v-1c0-1.1,0.9-2,2-2s2,0.9,2,2v1
	C243.4,124.6,242.5,125.5,241.4,125.5z M4,114.3c-0.1,0-0.1,0-0.2,0c-1.1-0.1-1.9-1.1-1.8-2.2l0.1-1c0.1-1.1,1.1-1.9,2.2-1.8
	s1.9,1.1,1.8,2.2l-0.1,1C5.9,113.5,5,114.3,4,114.3z M241,113.9c-1,0-1.9-0.8-2-1.8l-0.1-1c-0.1-1.1,0.7-2.1,1.8-2.2
	s2.1,0.7,2.2,1.8l0.1,1c0.1,1.1-0.7,2.1-1.8,2.2C241.1,113.9,241,113.9,241,113.9z M6.4,98.5c-0.1,0-0.3,0-0.4,0
	c-1.1-0.2-1.8-1.3-1.5-2.4l0.2-1C4.9,94,6,93.3,7.1,93.6c1.1,0.2,1.7,1.3,1.5,2.4l-0.2,1C8.1,97.9,7.3,98.5,6.4,98.5z M238.5,98.1
	c-0.9,0-1.7-0.6-1.9-1.6l-0.2-1c-0.3-1.1,0.4-2.2,1.5-2.4c1.1-0.3,2.2,0.4,2.4,1.5l0.2,1c0.2,1.1-0.4,2.1-1.5,2.4
	C238.8,98.1,238.6,98.1,238.5,98.1z M10.9,83.2c-0.2,0-0.5,0-0.7-0.1c-1-0.4-1.6-1.5-1.2-2.6l0.4-1c0.4-1,1.5-1.6,2.6-1.2
	c1,0.4,1.6,1.5,1.2,2.6l-0.3,0.9C12.5,82.7,11.7,83.2,10.9,83.2z M233.9,82.8c-0.8,0-1.6-0.5-1.9-1.3l-0.3-0.9
	c-0.4-1,0.1-2.2,1.2-2.6c1-0.4,2.2,0.1,2.6,1.2l0.4,0.9c0.4,1-0.1,2.2-1.2,2.6C234.4,82.7,234.2,82.8,233.9,82.8z M17.5,68.6
	c-0.3,0-0.6-0.1-0.9-0.2c-1-0.5-1.3-1.7-0.8-2.7l0.5-0.9c0.5-1,1.7-1.3,2.7-0.8c1,0.5,1.3,1.7,0.8,2.7l-0.5,0.9
	C18.9,68.2,18.2,68.6,17.5,68.6z M227.3,68.2c-0.7,0-1.4-0.4-1.8-1.1c-0.2-0.3-0.3-0.6-0.5-0.9c-0.5-1-0.2-2.2,0.8-2.7
	s2.2-0.2,2.7,0.8c0.2,0.3,0.3,0.6,0.5,0.9c0.5,1,0.2,2.2-0.8,2.7C228,68.2,227.6,68.2,227.3,68.2z M25.9,55c-0.4,0-0.8-0.1-1.2-0.4
	c-0.9-0.6-1.1-1.9-0.5-2.8l0.6-0.8c0.7-0.9,1.9-1.1,2.8-0.4s1.1,1.9,0.4,2.8l-0.6,0.8C27.2,54.7,26.6,55,25.9,55z M218.8,54.7
	c-0.6,0-1.2-0.3-1.6-0.8l-0.6-0.8c-0.7-0.9-0.5-2.1,0.4-2.8s2.1-0.5,2.8,0.4l0.6,0.8c0.7,0.9,0.5,2.1-0.4,2.8
	C219.7,54.6,219.2,54.7,218.8,54.7z M36.1,42.7c-0.5,0-1-0.2-1.4-0.5c-0.8-0.8-0.8-2-0.1-2.8l0.7-0.7c0.8-0.8,2-0.8,2.8,0
	s0.8,2,0,2.8l-0.7,0.7C37.2,42.5,36.7,42.7,36.1,42.7z M208.6,42.4c-0.5,0-1.1-0.2-1.4-0.6l-0.7-0.7c-0.8-0.8-0.7-2.1,0-2.8
	c0.8-0.8,2.1-0.7,2.8,0L210,39c0.8,0.8,0.7,2.1-0.1,2.8C209.6,42.3,209.1,42.4,208.6,42.4z M47.9,31.9c-0.6,0-1.2-0.3-1.6-0.7
	c-0.7-0.9-0.6-2.1,0.3-2.8l0.8-0.6c0.9-0.7,2.1-0.5,2.8,0.3c0.7,0.9,0.5,2.1-0.3,2.8l-0.8,0.6C48.8,31.7,48.3,31.9,47.9,31.9z
	 M196.8,31.6c-0.4,0-0.9-0.1-1.2-0.4l-0.8-0.6c-0.9-0.7-1-1.9-0.3-2.8s1.9-1,2.8-0.3l0.8,0.6c0.9,0.7,1,1.9,0.3,2.8
	C198,31.4,197.4,31.6,196.8,31.6z M61,22.7c-0.7,0-1.3-0.3-1.7-1C58.7,20.8,59,19.5,60,19l0.9-0.5c0.9-0.6,2.2-0.3,2.7,0.7
	c0.5,1,0.3,2.2-0.7,2.7L62,22.4C61.7,22.6,61.3,22.7,61,22.7z M183.7,22.5c-0.4,0-0.7-0.1-1-0.3l-0.8-0.5c-1-0.6-1.3-1.8-0.7-2.7
	c0.6-1,1.8-1.3,2.7-0.7l0.9,0.5c0.9,0.6,1.3,1.8,0.7,2.7C185,22.1,184.4,22.5,183.7,22.5z M75.2,15.4c-0.8,0-1.5-0.4-1.8-1.2
	c-0.4-1,0-2.2,1-2.6c0.3-0.1,0.6-0.3,0.9-0.4c1-0.4,2.2,0,2.6,1.1s0,2.2-1.1,2.6L76,15.2C75.7,15.3,75.4,15.4,75.2,15.4z
	 M169.5,15.2c-0.3,0-0.5-0.1-0.8-0.2c-0.3-0.1-0.6-0.3-0.9-0.4c-1-0.4-1.5-1.6-1.1-2.6s1.6-1.5,2.6-1.1c0.3,0.1,0.6,0.3,0.9,0.4
	c1,0.4,1.5,1.6,1,2.6C171,14.7,170.2,15.2,169.5,15.2z M90.2,10c-0.9,0-1.7-0.6-1.9-1.5C88,7.4,88.6,6.3,89.7,6l1-0.3
	c1.1-0.3,2.2,0.3,2.5,1.4s-0.3,2.2-1.4,2.5l-0.9,0.3C90.6,10,90.4,10,90.2,10z M154.4,9.9c-0.2,0-0.4,0-0.5-0.1L153,9.5
	c-1.1-0.3-1.7-1.4-1.4-2.4c0.3-1.1,1.4-1.7,2.4-1.4l1,0.3c1.1,0.3,1.7,1.4,1.4,2.5C156.1,9.3,155.3,9.9,154.4,9.9z M105.8,6.7
	c-1,0-1.8-0.7-2-1.7c-0.2-1.1,0.6-2.1,1.7-2.3l1-0.1c1.1-0.1,2.1,0.6,2.2,1.7s-0.6,2.1-1.7,2.2l-1,0.1C106,6.7,105.9,6.7,105.8,6.7z
	 M138.7,6.7c-0.1,0-0.2,0-0.3,0l-1-0.1c-1.1-0.1-1.9-1.1-1.7-2.2c0.1-1.1,1.1-1.9,2.2-1.7l1,0.1c1.1,0.1,1.9,1.2,1.7,2.3
	C140.6,5.9,139.7,6.7,138.7,6.7z M121.8,5.6c-1.1,0-2-0.9-2-2s0.9-2,2-2h0.7h0.3c1.1,0,2,0.9,2,2s-0.9,2-2,2l0,0h-0.3H121.8
	L121.8,5.6z"/>
<path class="st1" d="M122.5,162c1.1,0,2-0.8,2-2V89.8l13.7,13.7c0.8,0.8,2.1,0.8,2.8,0c0.8-0.8,0.8-2.1,0-2.8l-17.1-17.1l0,0l0,0
	c-0.1-0.1-0.1-0.1-0.1-0.1c-0.1-0.1-0.1-0.1-0.1-0.1c-0.1-0.1-0.2-0.1-0.4-0.2l0,0c-0.1-0.1-0.2-0.1-0.4-0.1c0,0-0.1-0.1-0.1,0
	c-0.1-0.1-0.1,0-0.3,0l0,0l0,0l0,0l0,0c-0.1,0-0.1,0-0.3,0c0,0-0.1,0.1-0.1,0c-0.1,0-0.2,0.1-0.4,0.1l0,0c-0.1,0.1-0.2,0.1-0.4,0.2
	c-0.1,0.1-0.1,0.1-0.2,0.2l-0.1,0.1l0,0L104,100.7c-0.8,0.8-0.8,2.1,0,2.8c0.8,0.8,2.1,0.8,2.8,0l13.7-13.7l0,70.1
	C120.5,161.1,121.4,162,122.5,162z"/>
</svg>
