<?xml version="1.0" encoding="utf-8"?>
<!-- Generator: Adobe Illustrator 22.1.0, SVG Export Plug-In . SVG Version: 6.00 Build 0)  -->
<svg version="1.1" id="Layer_1" xmlns="http://www.w3.org/2000/svg" xmlns:xlink="http://www.w3.org/1999/xlink" x="0px" y="0px"
	 viewBox="0 0 57 57" style="enable-background:new 0 0 57 57;" xml:space="preserve">
<style type="text/css">
	.st0{fill:#5EEA89;}
</style>
<g>
	<path class="st0" d="M28.5,56.5c-15.4,0-28-12.6-28-28s12.6-28,28-28s28,12.6,28,28S43.9,56.5,28.5,56.5z M28.5,3.5
		c-13.8,0-25,11.2-25,25s11.2,25,25,25s25-11.2,25-25S42.3,3.5,28.5,3.5z"/>
</g>
<path class="st0" d="M30.5,34l0-1.7l0-9.5v-4.7c0-1.1-0.9-2-2-2c-1.1,0-2.1,0.9-2,2l0,4.7h0v9.5v6.6c0,1.1,0.9,2,2,2
	c1.1,0,2.1-0.9,2-2l0-4.7l0,0V34z"/>
<path class="st0" d="M34,26.5l-1.7,0l-9.5,0l-4.7,0c-1.1,0-2,0.9-2,2c0,1.1,0.9,2.1,2,2l4.7,0v0h9.5l6.6,0c1.1,0,2-0.9,2-2
	c0-1.1-0.9-2.1-2-2l-4.7,0l0,0H34z"/>
</svg>
