<?xml version="1.0" encoding="utf-8"?>
<!-- Generator: Adobe Illustrator 22.1.0, SVG Export Plug-In . SVG Version: 6.00 Build 0)  -->
<svg version="1.1" id="Layer_1" xmlns="http://www.w3.org/2000/svg" xmlns:xlink="http://www.w3.org/1999/xlink" x="0px" y="0px"
	 viewBox="0 0 57 57" style="enable-background:new 0 0 57 57;" xml:space="preserve">
<style type="text/css">
	.st0{fill:#FFFFFF;}
	.st1{fill:#5EEA89;}
</style>
<circle class="st0" cx="28.5" cy="28.5" r="25"/>
<g>
	<path class="st1" d="M28.5,56.5c-15.4,0-28-12.6-28-28s12.6-28,28-28s28,12.6,28,28S43.9,56.5,28.5,56.5z M28.5,3.5
		c-13.8,0-25,11.2-25,25s11.2,25,25,25s25-11.2,25-25S42.3,3.5,28.5,3.5z"/>
</g>
<path class="st1" d="M37.9,24.6l-8-8l0,0l0,0l-0.1-0.1l-0.1-0.1c-0.1,0-0.1-0.1-0.2-0.1c0,0-0.1,0-0.1-0.1c-0.1,0-0.2-0.1-0.4-0.1
	l0,0c-0.1,0-0.1,0-0.3,0l0,0l0,0l0,0l0,0l0,0l0,0l0,0l0,0c-0.1,0-0.1,0-0.3,0h-0.1c-0.1,0-0.2,0.1-0.4,0.1h-0.1
	c-0.1,0-0.2,0.1-0.2,0.1c-0.1,0.1-0.1,0.1-0.2,0.2c0,0-0.1,0-0.1,0.1l0,0l0,0l-8,8c-0.4,0.4-0.6,0.9-0.6,1.4c0.1,0.5,0.1,1,0.6,1.4
	c0.8,0.8,2,0.8,2.8,0l4.6-4.6v16.1c0,1.1,0.9,2.1,2,2c1.1,0,2.1-0.9,2-2l0.1-16.2l4.6,4.6c0.4,0.4,0.9,0.6,1.4,0.6
	c0.5-0.1,1-0.1,1.4-0.6C38.7,26.7,38.7,25.5,37.9,24.6z"/>
</svg>
