<?xml version="1.0" encoding="utf-8"?>
<!-- Generator: Adobe Illustrator 22.1.0, SVG Export Plug-In . SVG Version: 6.00 Build 0)  -->
<svg version="1.1" id="Layer_1" xmlns="http://www.w3.org/2000/svg" xmlns:xlink="http://www.w3.org/1999/xlink" x="0px" y="0px"
	 viewBox="0 0 60 64" style="enable-background:new 0 0 60 64;" xml:space="preserve">
<style type="text/css">
	.st0{fill:#FFFFFF;}
	.st1{fill:#5CB6F6;}
	.st2{clip-path:url(#XMLID_2_);fill:#FFFFFF;}
	.st3{clip-path:url(#XMLID_2_);fill:#5CB6F6;}
</style>
<path class="st0" d="M44.7,62.3H15.3C8,62.3,2.2,56.5,2.2,49.2V19.8C2.2,12.5,8,6.7,15.3,6.7h29.4c7.3,0,13.2,5.9,13.2,13.2v29.4
	C57.8,56.5,52,62.3,44.7,62.3z"/>
<path class="st1" d="M46.2,63.3H13.8c-7,0-12.7-5.7-12.7-12.7V18.3c0-7,5.7-12.7,12.7-12.7h32.4c7,0,12.7,5.7,12.7,12.7v32.4
	C58.8,57.7,53.2,63.3,46.2,63.3z M13.8,7.7c-5.9,0-10.7,4.8-10.7,10.7v32.4c0,5.9,4.8,10.7,10.7,10.7h32.4c5.9,0,10.7-4.8,10.7-10.7
	V18.3c0-5.9-4.8-10.7-10.7-10.7H13.8z"/>
<g>
	<defs>
		<path id="XMLID_9_" d="M44.7,57.3H15.3C8,57.3,2.2,51.5,2.2,44.2V14.8C2.2,7.5,8,1.7,15.3,1.7h29.4c7.3,0,13.2,5.9,13.2,13.2v29.4
			C57.8,51.5,52,57.3,44.7,57.3z"/>
	</defs>
	<use xlink:href="#XMLID_9_"  style="overflow:visible;fill:#FFFFFF;"/>
	<clipPath id="XMLID_2_">
		<use xlink:href="#XMLID_9_"  style="overflow:visible;"/>
	</clipPath>
	<polygon class="st2" points="18.5,42.9 27,39.6 75.2,-7.9 74.2,-9.8 79.8,-16 76.5,-19.8 69.8,-13.3 67.7,-13.8 24.4,29.6 
		19.9,36.2 17.6,41.2 	"/>
	<path class="st3" d="M72.8-3.5l3.4-3.4c0.5-0.5,0.5-1.4,0-2l-0.5-0.5l5.4-5.8c0.5-0.5,0.5-1.4,0-2l-3.6-3.6c-0.5-0.5-1.4-0.5-2,0
		L70-15.2l-0.5-0.5c-0.5-0.5-1.4-0.5-2,0L24.1,27.9c-2.7,2.7-4.9,5.9-6.1,9.5l-1.8,4.9c0,0.2,0,0.4,0,0.4l-1.8,1.8
		c-0.5,0.5-0.5,1.4,0,2c0.2,0.2,0.5,0.4,0.9,0.4s0.7-0.2,0.9-0.4l1.8-1.8c0.2,0,0.4,0,0.4,0l4.9-1.8c3.6-1.4,6.8-3.4,9.5-6.1
		L72.8-3.5z M30.7,34.5c-2.5,2.5-5.4,4.3-8.6,5.6l-2.9,1.1l1.1-2.9c1.3-3.2,3.2-6.1,5.6-8.6l1.4-1.4l4.9,4.9L30.7,34.5z M34.1,31.1
		l-4.9-4.9l39.3-39.1L73.4-8L34.1,31.1z M73.7-11.6l-1.8-1.8l4.7-4.7l1.8,1.8L73.7-11.6z"/>
	<rect x="15.3" y="45" class="st3" width="61.2" height="1.8"/>
</g>
<path class="st1" d="M46.2,58.3H13.8c-7,0-12.7-5.7-12.7-12.7V13.3c0-7,5.7-12.7,12.7-12.7h32.4c7,0,12.7,5.7,12.7,12.7v32.4
	C58.8,52.7,53.2,58.3,46.2,58.3z M13.8,2.7C7.9,2.7,3.2,7.4,3.2,13.3v32.4c0,5.9,4.8,10.7,10.7,10.7h32.4c5.9,0,10.7-4.8,10.7-10.7
	V13.3c0-5.9-4.8-10.7-10.7-10.7H13.8z"/>
</svg>
