<?xml version="1.0" encoding="utf-8"?>
<!-- Generator: Adobe Illustrator 22.1.0, SVG Export Plug-In . SVG Version: 6.00 Build 0)  -->
<svg version="1.1" id="Layer_1" xmlns="http://www.w3.org/2000/svg" xmlns:xlink="http://www.w3.org/1999/xlink" x="0px" y="0px"
	 viewBox="0 0 64 64" style="enable-background:new 0 0 64 64;" xml:space="preserve">
<style type="text/css">
	.st0{fill:#A1E0FF;}
	.st1{fill:#FFFFFF;}
</style>
<g>
	<circle class="st0" cx="32" cy="32" r="31.8"/>
	<g>
		<g>
			<path class="st1" d="M36.3,23.4c0-2.7-1.7-5-4.9-5c-2.3,0-4.3,1.1-5.9,2.9l-2.4-2.2c2.2-2.4,5.1-4.2,8.8-4.2
				c5.2,0,8.6,3.1,8.6,8.2c0,6.7-8.3,9.4-7.4,16.6h-3.7C28.2,31.8,36.3,28.9,36.3,23.4z M28.2,47.3c0-1.9,1.4-3.3,3-3.3
				c1.7,0,3,1.3,3,3.3c0,1.9-1.4,3.2-3,3.2C29.6,50.5,28.2,49.2,28.2,47.3z"/>
		</g>
	</g>
</g>
</svg>
