<?xml version="1.0" encoding="utf-8"?>
<!-- Generator: Adobe Illustrator 22.1.0, SVG Export Plug-In . SVG Version: 6.00 Build 0)  -->
<svg version="1.1" id="Layer_1" xmlns="http://www.w3.org/2000/svg" xmlns:xlink="http://www.w3.org/1999/xlink" x="0px" y="0px"
	 viewBox="0 0 60 64" style="enable-background:new 0 0 60 64;" xml:space="preserve">
<style type="text/css">
	.st0{fill:#FFFFFF;}
	.st1{fill:#5CB6F6;}
	.st2{fill:#F0FCFF;}
</style>
<g>
	<path class="st0" d="M44.7,62.6H15.3C8,62.6,2.2,56.7,2.2,49.4V20.1C2.2,12.8,8,6.9,15.3,6.9h29.4c7.3,0,13.2,5.9,13.2,13.2v29.4
		C57.8,56.7,52,62.6,44.7,62.6z"/>
</g>
<path class="st1" d="M46.2,63.6H13.8c-7,0-12.7-5.7-12.7-12.7V18.6c0-7,5.7-12.7,12.7-12.7h32.4c7,0,12.7,5.7,12.7,12.7v32.4
	C58.8,57.9,53.2,63.6,46.2,63.6z M13.8,7.9c-5.9,0-10.7,4.8-10.7,10.7v32.4c0,5.9,4.8,10.7,10.7,10.7h32.4c5.9,0,10.7-4.8,10.7-10.7
	V18.6c0-5.9-4.8-10.7-10.7-10.7H13.8z"/>
<g>
	<path class="st0" d="M44.7,57.6H15.3C8,57.6,2.2,51.7,2.2,44.4V15.1C2.2,7.8,8,1.9,15.3,1.9h29.4c7.3,0,13.2,5.9,13.2,13.2v29.4
		C57.8,51.7,52,57.6,44.7,57.6z"/>
</g>
<path class="st1" d="M46.2,58.6H13.8c-7,0-12.7-5.7-12.7-12.7V13.6c0-7,5.7-12.7,12.7-12.7h32.4c7,0,12.7,5.7,12.7,12.7v32.4
	C58.8,52.9,53.2,58.6,46.2,58.6z M13.8,2.9C7.9,2.9,3.2,7.7,3.2,13.6v32.4c0,5.9,4.8,10.7,10.7,10.7h32.4c5.9,0,10.7-4.8,10.7-10.7
	V13.6c0-5.9-4.8-10.7-10.7-10.7H13.8z"/>
<g>
	<g>
		<path class="st2" d="M22.7,41.4l2.1-2.7c2.2,1.7,4.5,2.9,7.6,2.9c3.4,0,5-1.7,5-3.8c0-2.5-3-3.6-5.9-4.6c-3.6-1.2-7.6-2.9-7.6-7
			c0-3.9,3.3-6.9,8.8-6.9c3.2,0,6,1.2,8,2.7l-2.1,2.6c-1.8-1.2-3.6-2.2-5.8-2.2c-3.2,0-4.7,1.6-4.7,3.5c0,2.3,2.8,3.2,5.7,4.2
			c3.7,1.3,7.8,2.7,7.8,7.4c0,3.9-3.3,7.2-9.4,7.2C28.6,44.8,25.1,43.3,22.7,41.4z"/>
	</g>
</g>
<g>
	<g>
		<path class="st1" d="M20.4,39.1l2.1-2.7c2.2,1.7,4.5,2.9,7.6,2.9c3.4,0,5-1.7,5-3.8c0-2.5-3-3.6-5.9-4.6c-3.6-1.2-7.6-2.9-7.6-7
			c0-3.9,3.3-6.9,8.8-6.9c3.2,0,6,1.2,8,2.7l-2.1,2.6c-1.8-1.2-3.6-2.2-5.8-2.2c-3.2,0-4.7,1.6-4.7,3.5c0,2.3,2.8,3.2,5.7,4.2
			c3.7,1.3,7.8,2.7,7.8,7.4c0,3.9-3.3,7.2-9.4,7.2C26.4,42.5,22.8,41,20.4,39.1z"/>
	</g>
</g>
</svg>
