<?xml version="1.0" encoding="utf-8"?>
<!-- Generator: Adobe Illustrator 22.1.0, SVG Export Plug-In . SVG Version: 6.00 Build 0)  -->
<svg version="1.1" id="Layer_1" xmlns="http://www.w3.org/2000/svg" xmlns:xlink="http://www.w3.org/1999/xlink" x="0px" y="0px"
	 viewBox="0 0 494.6 682.3" style="enable-background:new 0 0 494.6 682.3;" xml:space="preserve">
<style type="text/css">
	.st0{fill:#A1E0FF;}
	.st1{fill:#FFFFFF;}
</style>
<g>
	<polygon class="st0" points="94.1,76.9 79.1,37.9 174.9,7.8 471.7,124.2 483.3,166.3 478.2,573.9 412.2,617.3 	"/>
	<path class="st1" d="M420.3,625.8l9.4-6.8l47.6-36.8c7.1-5.2,11.8-14,11.9-26l-0.7-395.7c0.8-26.4-19.3-51-32-56.4
		c0,0-17.8-12.6-129.8-50.6L181,6.8C132-7,73.3,12,73.1,64.2c-0.4,131.9,0,285.8-0.9,417.7c-0.2,24.7,8.9,36.4,32.9,44.3
		c84.6,28,185.2,68,274.7,99.1C393.3,630.1,407.6,631.4,420.3,625.8 M423,560.1c0,0,0.4-162.8,0.1-250.2
		c-0.1-28.8,1.3-60.2-2.6-89.7c-2.5-18.8-18.2-38.4-26.9-50.9c-11.9-17.1-31.7-28.2-54.3-37.3c-19.3-7.8-40.6-14.7-60.9-21.7
		c-49.7-17.1-113.3-36.7-164.5-54.5c-9.3-3.2-12.2-15.2-5.1-22.1c19.3-18.7,44-18.1,66.1-13c0.1,0,0.1,0,0.2,0
		c2.5,0.8,60.7,18.1,143.8,45.7C393.4,91.2,436,110.5,436,110.5c31.8,13.5,38.3,40.3,38.3,75.9c0,128.7-0.9,222.8-0.9,348.7
		c0,13.1-4.4,24.1-15.4,32.4c-3.9,3-10.5,8.1-15,11.4l-2.8,2c-6.9,5-16.5,0.4-17.1-8c-0.3-4.5-0.1-7.4-0.1-7.4V560.1L423,560.1z"/>
</g>
<g>
	<polygon class="st0" points="27.4,128.5 12.4,89.5 108.2,59.4 405,175.8 416.6,217.9 411.5,625.5 345.5,668.9 	"/>
	<path class="st1" d="M386,152.9c-8.2-5-33.9-17.6-113.5-44.6L114.3,58.4C65.2,44.6,6.5,63.6,6.4,115.8C6,247.7,6.3,401.6,5.5,533.5
		c-0.2,24.7,8.9,36.4,32.9,44.3c84.6,28,185.2,68,274.7,99.1c17,5.9,35.9,3.1,50.5-7.4l59.2-45.6l-0.9-411.8
		c0.8-23.8-15.5-46.1-28.1-54.2c0,0-1.4-1.1-3.4-2.4C387.9,153.9,386,152.9,386,152.9z M369.2,162.2c31.8,13.5,38.2,38,38.3,75.9
		c0.5,128.7-0.9,222.8-0.9,348.7c0,13.1-4.4,24.1-15.4,32.4c-3.9,3-10.7,8.9-15.4,11.8c-16,9.7-30.4,3.8-30.3-16.2
		c0.5-87.1,0.3-69.4-0.1-156.8c-0.1-28.8,4-176.3,0-205.9c-1.2-9.1,0.6-22.8-11.6-36.9c-15.7-18.3-49.7-27-61.3-31.7
		c-19.3-7.8-40.6-14.7-60.9-21.7c-49.7-17.1-113.3-36.6-164.4-54.5c-9.3-3.3-12.2-15.3-5.1-22.1c19.3-18.7,44-18.1,66.1-12.9
		c0.1,0,0.1,0,0.2,0.1c2.7,0.8,60.8,18.2,143.8,45.7C326.6,142.8,369.2,162.2,369.2,162.2z"/>
</g>
</svg>
