<?xml version="1.0" encoding="utf-8"?>
<!-- Generator: Adobe Illustrator 22.1.0, SVG Export Plug-In . SVG Version: 6.00 Build 0)  -->
<svg version="1.1" id="Layer_1" xmlns="http://www.w3.org/2000/svg" xmlns:xlink="http://www.w3.org/1999/xlink" x="0px" y="0px"
	 viewBox="0 0 58 58" style="enable-background:new 0 0 58 58;" xml:space="preserve">
<style type="text/css">
	.st0{fill:#FFF0F0;}
</style>
<path class="st0" d="M58,2c0-0.1,0-0.1-0.1-0.2c0-0.1,0-0.2-0.1-0.2c0-0.1-0.1-0.2-0.1-0.2c0-0.1-0.1-0.1-0.1-0.2
	c-0.2-0.3-0.4-0.5-0.7-0.7c-0.1,0-0.1-0.1-0.2-0.1c-0.1,0-0.2-0.1-0.3-0.1c-0.1,0-0.2-0.1-0.2-0.1c-0.1,0-0.1-0.1-0.2-0.1
	c-0.2,0-0.3,0-0.5,0H31.3c-1.4,0-2.5,1.1-2.5,2.5S29.9,5,31.3,5h18.2L0.7,53.8c-1,1-1,2.6,0,3.5C1.2,57.8,1.9,58,2.5,58
	s1.3-0.2,1.8-0.7L53,8.5v18.2c0,1.4,1.1,2.5,2.5,2.5s2.5-1.1,2.5-2.5V2.5C58,2.3,58,2.2,58,2z"/>
</svg>
