<?xml version="1.0" encoding="utf-8"?>
<!-- Generator: Adobe Illustrator 22.1.0, SVG Export Plug-In . SVG Version: 6.00 Build 0)  -->
<svg version="1.1" id="Layer_1" xmlns="http://www.w3.org/2000/svg" xmlns:xlink="http://www.w3.org/1999/xlink" x="0px" y="0px"
	 viewBox="0 0 58 58" style="enable-background:new 0 0 58 58;" xml:space="preserve">
<style type="text/css">
	.st0{fill:#EEFFF0;}
</style>
<path class="st0" d="M57.3,0.7c-1-1-2.6-1-3.5,0L5,49.5l0-18.2c0-1.4-1.1-2.5-2.5-2.5c-1.4,0-2.5,1.1-2.5,2.5l0,24.2l0,0v0v0
	c0,0,0,0,0,0c0,0,0,0.1,0,0.1c0,0.1,0,0.3,0,0.4c0,0.1,0,0.2,0.1,0.2c0,0.1,0,0.2,0.1,0.2c0,0.1,0.1,0.2,0.1,0.3
	c0,0.1,0.1,0.1,0.1,0.2c0.2,0.3,0.4,0.5,0.7,0.7c0.1,0,0.1,0.1,0.2,0.1c0.1,0,0.2,0.1,0.3,0.1c0.1,0,0.2,0.1,0.2,0.1
	C1.9,57.9,1.9,58,2,58c0.1,0,0.3,0,0.4,0c0,0,0,0,0.1,0c0,0,0,0,0,0h24.2c1.4,0,2.5-1.1,2.5-2.5S28.1,53,26.7,53H8.5L57.3,4.3
	C58.3,3.3,58.3,1.7,57.3,0.7z"/>
</svg>
